<mxfile host="Electron" agent="Mozilla/5.0 (X11; Linux x86_64) AppleWebKit/537.36 (KHTML, like Gecko) draw.io/28.0.6 Chrome/138.0.7204.100 Electron/37.2.3 Safari/537.36" version="28.0.6">
  <diagram name="Página-1" id="PrQ8OKpM-_F8nBhm-KhU">
    <mxGraphModel dx="706" dy="528" grid="1" gridSize="16" guides="1" tooltips="1" connect="1" arrows="1" fold="1" page="1" pageScale="1" pageWidth="827" pageHeight="1169" math="0" shadow="0">
      <root>
        <mxCell id="0" />
        <mxCell id="1" parent="0" />
        <mxCell id="PqNCJNIrrlSM93KieLoO-1" value="" style="verticalLabelPosition=bottom;verticalAlign=top;html=1;shadow=0;dashed=0;strokeWidth=1;shape=mxgraph.android.phone2;strokeColor=#001DBC;fillColor=#0050ef;fontColor=#ffffff;" parent="1" vertex="1">
          <mxGeometry x="30" y="60" width="200" height="390" as="geometry" />
        </mxCell>
        <mxCell id="PqNCJNIrrlSM93KieLoO-2" value="&lt;b&gt;&lt;font style=&quot;font-size: 17px;&quot;&gt;Aplicativo Lista Compras&lt;/font&gt;&lt;/b&gt;" style="text;html=1;align=center;verticalAlign=middle;whiteSpace=wrap;rounded=0;" parent="1" vertex="1">
          <mxGeometry x="304" width="268" height="30" as="geometry" />
        </mxCell>
        <mxCell id="PqNCJNIrrlSM93KieLoO-13" value="Large select" style="html=1;shadow=0;dashed=0;shape=mxgraph.bootstrap.rrect;rSize=5;strokeColor=#505050;strokeWidth=1;fillColor=#ffffff;fontColor=#777777;whiteSpace=wrap;align=left;verticalAlign=middle;fontStyle=0;fontSize=11;spacing=20;" parent="1" vertex="1">
          <mxGeometry x="41" y="280" width="167" height="32" as="geometry" />
        </mxCell>
        <mxCell id="PqNCJNIrrlSM93KieLoO-14" value="" style="shape=triangle;direction=south;fillColor=#495057;strokeColor=none;perimeter=none;" parent="PqNCJNIrrlSM93KieLoO-13" vertex="1">
          <mxGeometry x="1" y="0.5" width="10" height="5" relative="1" as="geometry">
            <mxPoint x="-17" y="-2.5" as="offset" />
          </mxGeometry>
        </mxCell>
        <mxCell id="PqNCJNIrrlSM93KieLoO-18" value="Large select" style="html=1;shadow=0;dashed=0;shape=mxgraph.bootstrap.rrect;rSize=5;strokeColor=#505050;strokeWidth=1;fillColor=#ffffff;fontColor=#777777;whiteSpace=wrap;align=left;verticalAlign=middle;fontStyle=0;fontSize=11;spacing=20;" parent="1" vertex="1">
          <mxGeometry x="41" y="342" width="167" height="32" as="geometry" />
        </mxCell>
        <mxCell id="PqNCJNIrrlSM93KieLoO-19" value="" style="shape=triangle;direction=south;fillColor=#495057;strokeColor=none;perimeter=none;" parent="PqNCJNIrrlSM93KieLoO-18" vertex="1">
          <mxGeometry x="1" y="0.5" width="10" height="5" relative="1" as="geometry">
            <mxPoint x="-17" y="-2.5" as="offset" />
          </mxGeometry>
        </mxCell>
        <mxCell id="PqNCJNIrrlSM93KieLoO-20" value="Large select" style="html=1;shadow=0;dashed=0;shape=mxgraph.bootstrap.rrect;rSize=5;strokeColor=#505050;strokeWidth=1;fillColor=#ffffff;fontColor=#777777;whiteSpace=wrap;align=left;verticalAlign=middle;fontStyle=0;fontSize=11;spacing=20;" parent="1" vertex="1">
          <mxGeometry x="41" y="218" width="167" height="32" as="geometry" />
        </mxCell>
        <mxCell id="PqNCJNIrrlSM93KieLoO-21" value="" style="shape=triangle;direction=south;fillColor=#495057;strokeColor=none;perimeter=none;" parent="PqNCJNIrrlSM93KieLoO-20" vertex="1">
          <mxGeometry x="1" y="0.5" width="10" height="5" relative="1" as="geometry">
            <mxPoint x="-17" y="-2.5" as="offset" />
          </mxGeometry>
        </mxCell>
        <mxCell id="PqNCJNIrrlSM93KieLoO-22" value="Large select" style="html=1;shadow=0;dashed=0;shape=mxgraph.bootstrap.rrect;rSize=5;strokeColor=#505050;strokeWidth=1;fillColor=#ffffff;fontColor=#777777;whiteSpace=wrap;align=left;verticalAlign=middle;fontStyle=0;fontSize=11;spacing=20;" parent="1" vertex="1">
          <mxGeometry x="41" y="156" width="167" height="32" as="geometry" />
        </mxCell>
        <mxCell id="PqNCJNIrrlSM93KieLoO-23" value="" style="shape=triangle;direction=south;fillColor=#495057;strokeColor=none;perimeter=none;" parent="PqNCJNIrrlSM93KieLoO-22" vertex="1">
          <mxGeometry x="1" y="0.5" width="10" height="5" relative="1" as="geometry">
            <mxPoint x="-17" y="-2.5" as="offset" />
          </mxGeometry>
        </mxCell>
        <mxCell id="PqNCJNIrrlSM93KieLoO-24" value="Pedido número" style="text;html=1;align=left;verticalAlign=middle;whiteSpace=wrap;rounded=0;fontSize=15;fontStyle=1" parent="1" vertex="1">
          <mxGeometry x="41" y="312" width="167" height="30" as="geometry" />
        </mxCell>
        <mxCell id="PqNCJNIrrlSM93KieLoO-26" value="Pedido número" style="text;html=1;align=left;verticalAlign=middle;whiteSpace=wrap;rounded=0;fontSize=15;fontStyle=1" parent="1" vertex="1">
          <mxGeometry x="41" y="250" width="167" height="30" as="geometry" />
        </mxCell>
        <mxCell id="PqNCJNIrrlSM93KieLoO-27" value="Pedido número" style="text;html=1;align=left;verticalAlign=middle;whiteSpace=wrap;rounded=0;fontSize=15;fontStyle=1" parent="1" vertex="1">
          <mxGeometry x="41" y="188" width="167" height="30" as="geometry" />
        </mxCell>
        <mxCell id="PqNCJNIrrlSM93KieLoO-28" value="Pedido número" style="text;html=1;align=left;verticalAlign=middle;whiteSpace=wrap;rounded=0;fontSize=15;fontStyle=1" parent="1" vertex="1">
          <mxGeometry x="41" y="128" width="167" height="30" as="geometry" />
        </mxCell>
        <mxCell id="MBErR8HereW5ylgT3AU--1" value="" style="verticalLabelPosition=bottom;verticalAlign=top;html=1;shadow=0;dashed=0;strokeWidth=1;shape=mxgraph.android.phone2;strokeColor=#001DBC;fillColor=#0050ef;fontColor=#ffffff;" vertex="1" parent="1">
          <mxGeometry x="304" y="450" width="200" height="390" as="geometry" />
        </mxCell>
        <mxCell id="MBErR8HereW5ylgT3AU--3" value="Lista de Compras" style="text;html=1;align=center;verticalAlign=middle;whiteSpace=wrap;rounded=0;fontSize=17;fontStyle=1;labelBackgroundColor=none;labelBorderColor=none;fillColor=#f5f5f5;gradientColor=#b3b3b3;strokeColor=#666666;" vertex="1" parent="1">
          <mxGeometry x="312" y="486" width="184" height="30" as="geometry" />
        </mxCell>
        <mxCell id="MBErR8HereW5ylgT3AU--6" value="Lista de Compras" style="text;html=1;align=center;verticalAlign=middle;whiteSpace=wrap;rounded=0;fontSize=17;fontStyle=1;labelBackgroundColor=none;labelBorderColor=none;fillColor=#f5f5f5;gradientColor=#b3b3b3;strokeColor=#666666;" vertex="1" parent="1">
          <mxGeometry x="36.5" y="96" width="187" height="30" as="geometry" />
        </mxCell>
        <mxCell id="MBErR8HereW5ylgT3AU--7" value="Produto" style="text;html=1;align=center;verticalAlign=middle;whiteSpace=wrap;rounded=0;fontSize=14;fontStyle=1" vertex="1" parent="1">
          <mxGeometry x="314" y="528" width="60" height="30" as="geometry" />
        </mxCell>
        <mxCell id="MBErR8HereW5ylgT3AU--9" value="" style="rounded=1;whiteSpace=wrap;html=1;align=left;" vertex="1" parent="1">
          <mxGeometry x="320" y="560" width="172" height="16" as="geometry" />
        </mxCell>
        <mxCell id="MBErR8HereW5ylgT3AU--10" value="Success" style="html=1;shadow=0;dashed=0;shape=mxgraph.bootstrap.rrect;rSize=5;strokeColor=none;strokeWidth=1;fillColor=#33A64C;fontColor=#FFFFFF;whiteSpace=wrap;align=left;verticalAlign=middle;spacingLeft=0;fontStyle=1;fontSize=14;spacing=5;" vertex="1" parent="1">
          <mxGeometry x="427" y="586" width="65" height="20" as="geometry" />
        </mxCell>
        <mxCell id="MBErR8HereW5ylgT3AU--12" value="" style="swimlane;container=1;shape=mxgraph.bootstrap.rrect;rSize=5;strokeColor=#999999;fillColor=#ffffff;fontStyle=0;childLayout=stackLayout;horizontal=1;startSize=0;horizontalStack=0;resizeParent=1;resizeParentMax=0;resizeLast=0;collapsible=0;marginBottom=0;whiteSpace=wrap;html=1;marginTop=10;marginBottom=10;" vertex="1" parent="1">
          <mxGeometry x="320" y="640" width="170" height="150" as="geometry" />
        </mxCell>
        <mxCell id="MBErR8HereW5ylgT3AU--13" value="Produto ........R$ 0,00" style="text;align=left;verticalAlign=middle;spacingLeft=20;spacingRight=10;overflow=hidden;points=[[0,0.5],[1,0.5]];portConstraint=eastwest;rotatable=0;whiteSpace=wrap;html=1;fontColor=inherit;fontSize=14;fontStyle=0;" vertex="1" parent="MBErR8HereW5ylgT3AU--12">
          <mxGeometry y="10" width="170" height="30" as="geometry" />
        </mxCell>
        <mxCell id="MBErR8HereW5ylgT3AU--14" value="Produto ........R$ 0,00" style="text;align=left;verticalAlign=middle;spacingLeft=20;spacingRight=10;overflow=hidden;points=[[0,0.5],[1,0.5]];portConstraint=eastwest;rotatable=0;whiteSpace=wrap;html=1;fontColor=inherit;fontSize=14;fontStyle=0;" vertex="1" parent="MBErR8HereW5ylgT3AU--12">
          <mxGeometry y="40" width="170" height="30" as="geometry" />
        </mxCell>
        <mxCell id="MBErR8HereW5ylgT3AU--15" value="Produto ........R$ 0,00" style="text;align=left;verticalAlign=middle;spacingLeft=20;spacingRight=10;overflow=hidden;points=[[0,0.5],[1,0.5]];portConstraint=eastwest;rotatable=0;whiteSpace=wrap;html=1;fontColor=inherit;fontSize=14;fontStyle=0;" vertex="1" parent="MBErR8HereW5ylgT3AU--12">
          <mxGeometry y="70" width="170" height="30" as="geometry" />
        </mxCell>
        <mxCell id="MBErR8HereW5ylgT3AU--16" value="" style="text;shape=line;strokeColor=inherit;align=center;verticalAlign=middle;spacingLeft=20;spacingRight=10;overflow=hidden;points=[[0,0.5],[1,0.5]];portConstraint=eastwest;rotatable=0;whiteSpace=wrap;html=1;fontColor=inherit;" vertex="1" parent="MBErR8HereW5ylgT3AU--12">
          <mxGeometry y="100" width="170" height="10" as="geometry" />
        </mxCell>
        <mxCell id="MBErR8HereW5ylgT3AU--17" value="Valor Total .....R$&amp;nbsp;" style="text;align=left;verticalAlign=middle;spacingLeft=20;spacingRight=10;overflow=hidden;points=[[0,0.5],[1,0.5]];portConstraint=eastwest;rotatable=0;whiteSpace=wrap;html=1;fontColor=inherit;fontSize=14;fontStyle=0;" vertex="1" parent="MBErR8HereW5ylgT3AU--12">
          <mxGeometry y="110" width="170" height="30" as="geometry" />
        </mxCell>
        <mxCell id="MBErR8HereW5ylgT3AU--18" value="Limpar" style="html=1;shadow=0;dashed=0;shape=mxgraph.bootstrap.rrect;rSize=5;strokeColor=none;strokeWidth=1;fillColor=#DB2843;fontColor=#FFFFFF;whiteSpace=wrap;align=left;verticalAlign=middle;spacingLeft=0;fontStyle=1;fontSize=14;spacing=5;" vertex="1" parent="1">
          <mxGeometry x="354" y="586" width="60" height="20" as="geometry" />
        </mxCell>
        <mxCell id="MBErR8HereW5ylgT3AU--36" value="" style="verticalLabelPosition=bottom;verticalAlign=top;html=1;shadow=0;dashed=0;strokeWidth=1;shape=mxgraph.android.phone2;strokeColor=#001DBC;fillColor=#0050ef;fontColor=#ffffff;" vertex="1" parent="1">
          <mxGeometry x="496" y="60" width="200" height="390" as="geometry" />
        </mxCell>
      </root>
    </mxGraphModel>
  </diagram>
</mxfile>
